<?xml version="1.0" encoding="utf-8"?>
<!DOCTYPE svg PUBLIC "-//W3C//DTD SVG 1.0//EN" "http://www.w3.org/TR/2001/REC-SVG-20010904/DTD/svg10.dtd">
<svg version="1.0" xmlns="http://www.w3.org/2000/svg" width="886px" height="136px" viewBox="0 0 886 136" preserveAspectRatio="xMidYMid meet">
 <g fill="#000000">
  <path d="M0 95.5 c0 -37.9 0.1 -40.5 1.8 -40.6 0.9 0 9.4 -0.2 18.7 -0.3 9.4 -0.2 19.4 -0.6 22.3 -1.1 3.9 -0.6 5.2 -0.4 5.2 0.5 0 1 0.3 1 1.4 0.1 1 -0.8 2.1 -0.9 3.3 -0.3 1 0.5 6.8 0.9 12.8 1 10.2 0.1 10.8 0 8.3 -1.4 -1.6 -0.8 -2.8 -2 -2.8 -2.7 0 -0.9 -0.2 -0.9 -0.8 0.1 -0.5 0.7 -2.6 1.3 -4.8 1.4 -2.1 0 -5 0.5 -6.2 1 -1.8 0.6 -2.3 0.5 -2 -0.4 0.3 -0.7 1.9 -1.4 3.6 -1.6 1.8 -0.2 3 -0.7 2.7 -1.2 -0.8 -1.2 4 -2.4 9 -2.2 11.9 0.5 16.9 0.2 17.7 -1.2 0.6 -1.1 3.1 -1.3 12.3 -0.9 10 0.4 11.5 0.2 11.5 -1.1 0 -1.1 0.9 -1.6 2.9 -1.6 1.7 0 3.3 -0.4 3.6 -1 0.3 -0.5 1.3 -1 2.2 -1 1.2 0 1.1 0.5 -0.7 2 -1.3 1.1 -1.8 2 -1.2 2 0.6 0 1.4 -0.5 1.7 -1 0.3 -0.5 2.1 -1 3.9 -1 1.8 0 3.5 -0.3 3.9 -0.6 1.1 -1.1 -0.5 -3.4 -2.4 -3.4 -1 0 -1.9 -0.4 -1.9 -1 0 -0.5 1.2 -1 2.8 -1 1.5 0 6.9 -0.5 12 -1 9.9 -0.9 16.6 0 10.7 1.6 -2.6 0.6 -2.7 0.8 -1 1.5 3.5 1.3 11.2 1 12.4 -0.5 0.9 -1 3.9 -1.6 9.7 -1.8 7 -0.2 8.1 -0.1 6.7 1 -1.6 1.1 -1.1 1.7 1.2 1.2 0.5 -0.1 4.6 -0.2 9 -0.1 4.8 0 10.9 -0.8 15.2 -2 4 -1 8.2 -1.9 9.3 -1.9 1.1 0 2 -0.5 2 -1.1 0 -0.8 0.5 -0.8 1.5 0.1 0.8 0.7 1.5 0.9 1.5 0.4 0 -0.5 1.4 -1 3.2 -1.1 1.7 -0.1 3.4 -0.7 3.7 -1.2 1.3 -2 11.1 -3.5 21.8 -3.2 2.6 0.1 3.1 0.4 2.8 2.1 -0.2 1.2 0.5 2.9 1.7 4 2 1.8 3.7 2 21.2 2.2 44.6 0.4 43.8 0.4 41.6 1.8 -1.2 0.8 -0.9 1 1.3 1 1.6 0 2.6 0.4 2.2 1 -0.3 0.5 0 1 0.9 1 0.8 0 1.7 -0.6 1.9 -1.2 0.4 -1 0.6 -1 0.6 0 0.1 0.6 0.7 1.2 1.5 1.2 0.8 0 1.7 -0.6 1.9 -1.2 0.4 -0.9 0.8 -0.9 1.4 -0.3 0.4 0.6 1.3 1.1 1.8 1.2 0.6 0.1 2.1 0.6 3.4 1.1 2.3 0.8 2.2 0.9 -1.8 1.6 -2.3 0.3 -4.6 0.4 -5.2 0.1 -0.5 -0.4 -0.9 0.1 -0.9 1 0 1.4 0.8 1.6 5.3 1.1 2.8 -0.3 10.2 -0.8 16.2 -1.1 6.1 -0.2 12.1 -0.7 13.5 -1 2.3 -0.5 2.3 -0.4 0.6 0.6 -3.2 1.9 -15.5 3.9 -20.2 3.2 -3 -0.4 -4.4 -0.2 -4.4 0.6 0 0.6 -0.7 1.1 -1.5 1.1 -0.8 0 -1.5 -0.4 -1.5 -1 0 -0.5 -0.7 -1 -1.5 -1 -0.8 0 -1.5 0.7 -1.5 1.6 0 1.6 -1.3 1.6 -7.4 -0.3 -1.2 -0.3 -1.7 -0.1 -1.4 0.8 0.2 0.7 2.2 1.5 4.4 1.7 5.9 0.5 6.5 1 1.1 1.1 -2.9 0.1 -4.6 0.5 -4.2 1.1 0.4 0.6 15.8 0.8 42.8 0.5 23.2 -0.2 43.5 -0.4 45.1 -0.4 3.8 -0.1 6.8 -1 6.1 -2.1 -0.3 -0.4 -1.4 -0.6 -2.6 -0.3 -1.7 0.5 -2 0.2 -1.7 -1.3 0.2 -1.3 1.5 -2.1 4.1 -2.5 2 -0.3 3.7 -0.3 3.7 0 0 1.1 5.4 0.7 6.3 -0.4 0.4 -0.6 1 -0.5 1.5 0.3 0.6 0.9 2.5 1.2 5.8 1 4.2 -0.3 4.9 -0.6 5.4 -2.8 0.5 -2.3 1 -2.5 6.5 -2.5 3.3 -0.1 7.1 0.3 8.4 0.7 3.4 1.2 9.4 -0.1 8.7 -1.9 -0.5 -1.3 0.6 -2 6.4 -3.8 2.2 -0.7 2.3 -0.6 1.2 0.8 -1 1.2 -1.1 2.1 -0.3 3.4 1 1.7 1 1.7 1.1 0.1 0 -1 0.4 -1.8 0.9 -1.8 0.5 0 0.7 0.9 0.4 2 -0.4 1.6 0 2 1.8 2 1.3 0 3.5 0.3 4.9 0.6 2.4 0.6 2.5 0.6 0.5 -0.9 -1.1 -0.9 -1.6 -1.7 -1.1 -1.7 0.4 0 -0.2 -0.9 -1.5 -2 l-2.4 -1.9 2.7 -0.1 c2.6 0 3.1 -1.2 1.5 -3.7 -0.6 -1 0.2 -1.3 2.9 -1.3 5 0 3.5 -1.3 -1.6 -1.4 -2.2 -0.1 -4 -0.5 -3.9 -1 0 -0.5 -0.5 -1.3 -1.3 -1.7 -0.9 -0.6 -0.6 -0.9 1.2 -1 1.4 0 3.2 -0.2 4 -0.4 4.6 -1.3 19.5 -3.2 21.1 -2.8 2.7 0.7 2.3 3 -0.6 3.7 -5.2 1.3 -1.3 4.6 5.5 4.6 4.1 0 6.6 -2.4 4.1 -3.9 -0.6 -0.4 2.9 -0.8 7.9 -1 8.9 -0.2 9.6 0.1 9.1 3.2 -0.2 1.1 9.2 -0.3 10 -1.5 0.3 -0.5 1.2 -0.2 1.9 0.7 1.6 1.9 5.7 1.9 9 0 1.4 -0.8 3.3 -1.4 4.3 -1.5 0.9 0 2.7 -1 3.8 -2.1 2 -2 2.9 -2.1 10.6 -1.6 7 0.4 8.2 0.3 7.2 -0.9 -0.7 -0.8 -2.1 -1.1 -3.5 -0.8 -1.5 0.4 -2.4 0.2 -2.4 -0.5 0 -0.6 0.3 -1.1 0.8 -1 1.6 0.2 5.1 -1.4 5.5 -2.6 1.2 -2.9 8.9 -5.6 17.3 -6 4.9 -0.3 8.6 -0.1 8.9 0.5 0.3 0.6 -0.1 1 -1.1 1 -1.2 0 -1.4 0.3 -0.6 1.3 0.6 0.7 0.9 2.9 0.8 5 -0.2 2 0.1 3.7 0.5 3.7 0.5 0 0.9 0.7 0.9 1.5 0 1.7 -0.3 1.6 17 2.1 31.5 0.9 48.1 1.8 48.6 2.6 0.3 0.4 -1.4 0.9 -3.8 0.9 l-4.3 0.1 5 1.2 c4.8 1.2 4.9 1.3 2.8 2.7 -3.3 2 -2.9 2.5 1.6 2.1 4.9 -0.5 15.6 1.7 14.4 2.9 -1.2 1.2 -16.2 1.9 -16.9 0.8 -0.3 -0.5 0.3 -0.9 1.3 -1 1 0 1.3 -0.3 0.6 -0.6 -0.7 -0.2 -3.7 0.3 -6.5 1.3 -2.9 1 -5.9 1.7 -6.5 1.6 -2 -0.4 -1.5 1.6 0.5 2.1 9.7 2.7 12.3 3 17.4 1.9 2.9 -0.6 7.6 -1.4 10.3 -1.7 2.8 -0.4 6.6 -1.4 8.5 -2.3 4.8 -2.3 23.4 -2.5 23.6 -0.2 0.1 0.8 0.2 2 0.3 2.7 0.2 1.9 4.6 2.2 33.1 2.7 14.6 0.2 27.6 0.8 29 1.4 1.4 0.5 2.8 1 3.2 1.1 0.4 0.1 1.3 0.3 2 0.6 1.6 0.5 17.8 2.4 19.8 2.3 0.8 -0.1 20.3 0 43.3 0 l41.7 0.2 0 40.5 0 40.5 -443 0 -443 0 0 -40.5z m320 -41.5 c0 -0.5 -1.6 -1 -3.6 -1 -2.1 0 -3.3 0.4 -2.9 1 0.3 0.6 1.9 1 3.6 1 1.6 0 2.9 -0.4 2.9 -1z m391.3 -6.1 c-0.8 -0.8 -1.9 -0.8 -4 -0.1 -2.8 1 -2.8 1 1.2 1.1 2.8 0.1 3.6 -0.2 2.8 -1z m-393.3 -1.1 c0 1.4 3.6 1.6 4.5 0.2 0.3 -0.5 0 -1 -0.7 -1 -0.9 0 -0.9 -0.3 0.2 -1 1.1 -0.7 0.5 -1 -2.5 -1.2 -8.1 -0.4 -13.5 0.6 -13.5 2.3 0 0.6 0.6 0.9 1.3 0.6 0.7 -0.2 3 -0.2 5.2 0.2 2.4 0.4 4.3 0.3 4.7 -0.4 0.5 -0.6 0.8 -0.6 0.8 0.3z m-188.1 -1.4 c-1.3 -1.6 -5.9 -1.9 -5.9 -0.5 0 1.1 1.1 1.5 4.5 1.7 2.1 0.2 2.4 -0.1 1.4 -1.2z m455 -18 c1 -0.9 -3.5 -0.3 -4.9 0.6 -1.1 0.8 -0.7 0.9 1.5 0.4 1.7 -0.4 3.2 -0.8 3.4 -1z m9.3 -0.7 c-4.2 -1 -5.9 -0.6 -4.9 1 0.3 0.5 2.5 0.7 4.9 0.4 l4.3 -0.5 -4.3 -0.9z"/>
  <path d="M349.6 50.6 c0.3 -0.7 1.8 -1.3 3.4 -1.3 3.6 0 3.3 0.5 -0.8 1.6 -2.3 0.7 -3 0.6 -2.6 -0.3z"/>
  <path d="M665 47.2 c0 -1.2 5.9 -2.2 6.6 -1 0.3 0.4 -0.4 0.8 -1.5 0.8 -1 0 -2.6 0.3 -3.5 0.6 -0.9 0.3 -1.6 0.2 -1.6 -0.4z"/>
  <path d="M424.8 44.2 c-1.6 -0.9 -2.8 -2.5 -2.8 -3.5 0 -1.6 0.2 -1.7 1.5 -0.3 0.8 0.8 1.5 1.9 1.5 2.5 0 0.6 0.9 1.1 2 1.1 1.1 0 2 0.5 2 1 0 1.4 -1.1 1.2 -4.2 -0.8z"/>
  <path d="M449.5 40.9 c-1 -1.5 0.3 -2.5 1.6 -1.2 0.7 0.7 0.7 1.3 0.1 1.7 -0.6 0.3 -1.4 0.1 -1.7 -0.5z"/>
  <path d="M673 37.3 c0 -0.5 1.8 -0.8 3.9 -0.8 2.2 -0.1 3.7 0.3 3.5 0.7 -0.7 1 -7.4 1.1 -7.4 0.1z"/>
  <path d="M105 36 c-1.1 -0.7 -0.7 -1 1.8 -1 2 0 3.1 0.4 2.7 1 -0.8 1.3 -2.6 1.3 -4.5 0z"/>
  <path d="M187.5 36.1 l-3 -0.7 2.8 -0.7 c2.9 -0.8 4.7 -0.3 4.7 1.4 0 1 -0.1 1 -4.5 0z"/>
  <path d="M138.8 33.2 c-1 -0.2 -1.8 -0.7 -1.8 -1.2 0 -0.5 -1.2 -1.6 -2.7 -2.5 -2.7 -1.6 -2.6 -1.6 3.5 -1.1 6.2 0.4 9 1.4 6.4 2.3 -0.7 0.3 -1.8 1 -2.5 1.7 -0.6 0.6 -2 1 -2.9 0.8z"/>
  <path d="M538.8 29.1 c-3.5 -2.4 -4.5 -4.6 -2.1 -4.6 1.1 0 6.8 6.4 6.2 6.9 -0.2 0.2 -2.1 -0.9 -4.1 -2.3z"/>
  <path d="M453.1 26.6 l-2.3 -1.3 3.2 -0.7 c3.8 -0.7 4.5 -0.3 3.7 1.9 -0.8 1.8 -1.5 1.8 -4.6 0.1z"/>
  <path d="M469 26.5 c0.7 -0.8 1.7 -1.5 2.2 -1.5 0.6 0 0.5 0.7 -0.2 1.5 -0.7 0.8 -1.7 1.5 -2.2 1.5 -0.6 0 -0.5 -0.7 0.2 -1.5z"/>
  <path d="M486.7 21.2 c-1 -1 -1.4 -2.2 -1 -2.5 0.3 -0.4 -0.2 -0.7 -1.2 -0.7 -1 0 -1.5 -0.3 -1.2 -0.7 0.4 -0.3 -0.1 -1.2 -1.1 -1.9 -1.5 -1.1 -1.4 -1.4 1.3 -2.4 2.5 -1 3.6 -0.9 6.3 0.6 4 2.1 4 3.2 0.2 4.6 -2.5 0.8 -2.8 1.3 -1.9 2.4 1.8 2.2 0.5 2.7 -1.4 0.6z"/>
 </g>
</svg>